<svg xmlns="http://www.w3.org/2000/svg" width="14.558" height="17.925" viewBox="0 0 14.558 17.925"><defs><style>.a{fill:#fff;}</style></defs><path class="a" d="M222.818,154.7a.42.42,0,0,0-.42.42v7.934a.42.42,0,0,0,.84,0v-7.934A.42.42,0,0,0,222.818,154.7Zm0,0" transform="translate(-213.062 -148.209)"/><path class="a" d="M104.818,154.7a.42.42,0,0,0-.42.42v7.934a.42.42,0,0,0,.84,0v-7.934A.42.42,0,0,0,104.818,154.7Zm0,0" transform="translate(-100.015 -148.209)"/><path class="a" d="M1.189,5.335V15.677a2.316,2.316,0,0,0,.616,1.6,2.067,2.067,0,0,0,1.5.649h7.942a2.067,2.067,0,0,0,1.5-.649,2.316,2.316,0,0,0,.616-1.6V5.335a1.6,1.6,0,0,0-.411-3.153H10.8V1.657A1.649,1.649,0,0,0,9.139,0H5.412A1.649,1.649,0,0,0,3.75,1.657v.525H1.6a1.6,1.6,0,0,0-.411,3.153ZM11.247,17.083H3.3a1.329,1.329,0,0,1-1.276-1.406V5.372H12.523V15.677a1.329,1.329,0,0,1-1.276,1.406ZM4.589,1.657A.809.809,0,0,1,5.412.838H9.139a.809.809,0,0,1,.823.819v.525H4.589ZM1.6,3.021H12.951a.756.756,0,0,1,0,1.511H1.6a.756.756,0,1,1,0-1.511Zm0,0" transform="translate(0.003 0.002)"/><path class="a" d="M163.818,154.7a.42.42,0,0,0-.42.42v7.934a.42.42,0,1,0,.84,0v-7.934A.42.42,0,0,0,163.818,154.7Zm0,0" transform="translate(-156.539 -148.209)"/></svg>