<svg xmlns="http://www.w3.org/2000/svg" width="46" height="46" viewBox="0 0 46 46"><defs><style>.a{fill:#fff;}</style></defs><path class="a" d="M24.443,46H21.557a4.24,4.24,0,0,1-4.235-4.235v-.977a18.57,18.57,0,0,1-2.884-1.2l-.692.692a4.235,4.235,0,0,1-5.989,0l-2.04-2.04a4.234,4.234,0,0,1,0-5.989l.692-.692a18.572,18.572,0,0,1-1.2-2.884H4.235A4.239,4.239,0,0,1,0,24.444V21.557a4.24,4.24,0,0,1,4.235-4.235h.977a18.576,18.576,0,0,1,1.2-2.884l-.692-.692a4.235,4.235,0,0,1,0-5.989L7.757,5.716a4.234,4.234,0,0,1,5.989,0l.692.692a18.588,18.588,0,0,1,2.884-1.2V4.235A4.239,4.239,0,0,1,21.557,0h2.887a4.239,4.239,0,0,1,4.235,4.235v.977a18.571,18.571,0,0,1,2.884,1.2l.692-.692a4.235,4.235,0,0,1,5.989,0l2.04,2.04a4.234,4.234,0,0,1,0,5.989l-.692.692a18.572,18.572,0,0,1,1.2,2.884h.977A4.24,4.24,0,0,1,46,21.557v2.887a4.24,4.24,0,0,1-4.235,4.235h-.977a18.576,18.576,0,0,1-1.2,2.884l.692.692a4.235,4.235,0,0,1,0,5.989l-2.041,2.041a4.234,4.234,0,0,1-5.989,0l-.692-.692a18.588,18.588,0,0,1-2.884,1.2v.977A4.239,4.239,0,0,1,24.443,46Zm-9.555-9.239a15.885,15.885,0,0,0,4.118,1.709,1.348,1.348,0,0,1,1.011,1.3v1.99A1.541,1.541,0,0,0,21.557,43.3h2.887a1.541,1.541,0,0,0,1.539-1.539v-1.99a1.348,1.348,0,0,1,1.011-1.3,15.885,15.885,0,0,0,4.118-1.709,1.348,1.348,0,0,1,1.639.207l1.409,1.41a1.539,1.539,0,0,0,2.176,0l2.042-2.042a1.539,1.539,0,0,0,0-2.176l-1.41-1.41a1.348,1.348,0,0,1-.207-1.639,15.883,15.883,0,0,0,1.709-4.118,1.348,1.348,0,0,1,1.3-1.011h1.99A1.541,1.541,0,0,0,43.3,24.444V21.557a1.541,1.541,0,0,0-1.539-1.539h-1.99a1.348,1.348,0,0,1-1.3-1.011,15.886,15.886,0,0,0-1.709-4.118,1.348,1.348,0,0,1,.207-1.639l1.41-1.41a1.539,1.539,0,0,0,0-2.176L36.337,7.622a1.539,1.539,0,0,0-2.176,0l-1.41,1.41a1.348,1.348,0,0,1-1.639.207A15.886,15.886,0,0,0,26.994,7.53a1.348,1.348,0,0,1-1.011-1.3V4.235A1.541,1.541,0,0,0,24.444,2.7H21.557a1.541,1.541,0,0,0-1.539,1.539v1.99a1.348,1.348,0,0,1-1.011,1.3,15.885,15.885,0,0,0-4.118,1.709,1.348,1.348,0,0,1-1.639-.207L11.84,7.622a1.539,1.539,0,0,0-2.176,0L7.622,9.663a1.539,1.539,0,0,0,0,2.176l1.41,1.41a1.348,1.348,0,0,1,.207,1.639,15.883,15.883,0,0,0-1.709,4.118,1.348,1.348,0,0,1-1.3,1.011H4.235A1.541,1.541,0,0,0,2.7,21.557v2.887a1.541,1.541,0,0,0,1.539,1.539h1.99a1.348,1.348,0,0,1,1.3,1.011,15.886,15.886,0,0,0,1.709,4.118,1.348,1.348,0,0,1-.207,1.639l-1.41,1.41a1.539,1.539,0,0,0,0,2.176l2.042,2.042a1.539,1.539,0,0,0,2.176,0l1.41-1.41a1.354,1.354,0,0,1,1.639-.207Z"/><path class="a" d="M154.609,164.617a10.009,10.009,0,1,1,10.009-10.009A10.02,10.02,0,0,1,154.609,164.617Zm0-17.322a7.313,7.313,0,1,0,7.313,7.313A7.322,7.322,0,0,0,154.609,147.3Z" transform="translate(-131.609 -131.609)"/></svg>