<svg xmlns="http://www.w3.org/2000/svg" width="19.342" height="17" viewBox="0 0 19.342 17"><defs><style>.a{fill:#fff;}</style></defs><g transform="translate(0 0)"><path class="a" d="M6.232,11.334H16.509a.567.567,0,0,0,.545-.411L19.32,2.989a.567.567,0,0,0-.545-.722H4.925L4.52.444A.567.567,0,0,0,3.966,0H.566a.567.567,0,1,0,0,1.133H3.512L5.558,10.34a1.7,1.7,0,0,0,.675,3.26H16.509a.567.567,0,0,0,0-1.133H6.233a.567.567,0,0,1,0-1.133ZM18.024,3.4l-1.943,6.8H6.688L5.177,3.4Zm0,0"/><path class="a" d="M150,361.7a1.7,1.7,0,1,0,1.7-1.7A1.7,1.7,0,0,0,150,361.7Zm1.7-.567a.567.567,0,1,1-.567.567A.567.567,0,0,1,151.7,361.133Zm0,0" transform="translate(-144.333 -346.4)"/><path class="a" d="M362,361.7a1.7,1.7,0,1,0,1.7-1.7A1.7,1.7,0,0,0,362,361.7Zm1.7-.567a.567.567,0,1,1-.567.567A.567.567,0,0,1,363.7,361.133Zm0,0" transform="translate(-348.325 -346.4)"/></g></svg>