<svg xmlns="http://www.w3.org/2000/svg" width="42" height="46.85" viewBox="0 0 42 46.85"><defs><style>.a{fill:#fff;}</style></defs><path class="a" d="M17.2,45.02a1.83,1.83,0,0,1-1.83,1.83H7.32A7.328,7.328,0,0,1,0,39.53V7.32A7.328,7.328,0,0,1,7.32,0h22.5a7.329,7.329,0,0,1,7.32,7.32V24.8a1.83,1.83,0,1,1-3.66,0V7.32a3.664,3.664,0,0,0-3.66-3.66H7.32A3.664,3.664,0,0,0,3.66,7.32V39.53a3.664,3.664,0,0,0,3.66,3.66h8.052a1.83,1.83,0,0,1,1.83,1.83ZM27.99,10.98H9.14a1.83,1.83,0,1,0,0,3.66H27.99a1.83,1.83,0,0,0,0-3.66Zm1.83,9.15a1.83,1.83,0,0,0-1.83-1.83H9.14a1.83,1.83,0,1,0,0,3.66H27.99A1.83,1.83,0,0,0,29.82,20.131ZM9.14,25.621a1.83,1.83,0,1,0,0,3.66h9.618a1.83,1.83,0,0,0,0-3.66Zm32.527,13.4c-.064.092-.285.4-.422.577A25.754,25.754,0,0,1,37.2,43.771a12.55,12.55,0,0,1-7.829,3.079,12.55,12.55,0,0,1-7.829-3.079A25.746,25.746,0,0,1,17.5,39.6c-.137-.173-.358-.485-.422-.577a1.83,1.83,0,0,1,0-2.1c.064-.092.285-.4.422-.577a25.747,25.747,0,0,1,4.044-4.168A12.55,12.55,0,0,1,29.373,29.1,12.55,12.55,0,0,1,37.2,32.177a25.746,25.746,0,0,1,4.044,4.169c.137.173.358.485.422.577A1.829,1.829,0,0,1,41.668,39.026ZM37.85,37.974c-2.91-3.462-5.759-5.216-8.477-5.216s-5.567,1.754-8.477,5.216c2.91,3.462,5.759,5.216,8.477,5.216S34.94,41.436,37.85,37.974ZM29.464,34.5a3.477,3.477,0,1,0,3.477,3.477A3.477,3.477,0,0,0,29.464,34.5Zm0,0"/></svg>